<svg width="69" height="69" viewBox="0 0 69 69" fill="none" xmlns="http://www.w3.org/2000/svg">
<g id="ei:arrow-up">
<path id="Vector" d="M21.6039 44.8083C15.6962 37.8854 16.5169 27.5117 23.4398 21.6039C30.3626 15.6962 40.7363 16.5169 46.6441 23.4398C52.5518 30.3626 51.7311 40.7363 44.8082 46.6441C37.8854 52.5519 27.5117 51.7311 21.6039 44.8083ZM45.1711 24.6967C39.9547 18.584 30.8095 17.8604 24.6967 23.0769C18.584 28.2933 17.8604 37.4385 23.0769 43.5513C28.2933 49.664 37.4385 50.3876 43.5513 45.1711C49.664 39.9547 50.3876 30.8095 45.1711 24.6967Z" fill="white"/>
<path id="Vector_2" d="M38.0884 41.3053L38.9847 29.9761L27.6556 29.0798L27.8067 27.1688L41.0469 28.2163L39.9994 41.4564L38.0884 41.3053Z" fill="white"/>
<path id="Vector_3" d="M39.3873 28.3596L40.6443 29.8326L28.1242 40.5168L26.8672 39.0439L39.3873 28.3596Z" fill="white"/>
</g>
</svg>
